# xmcd
#
# Track frame offsets:
#	150
#	17582
#	33922
#	50810
#	75702
#	92597
#	106480
#	131510
#	150257
#	166265
#	184122
#	199947
#	220102
#	237742
#	257877
#	276057
#	294790
#	313387
#
# Disc length: 4401 seconds
#
# Revision: 0
# Processed by: cddbd v1.5.1PL2 Copyright (c) Steve Scherf et al.
# Submitted via: audiograbber 1.83.01
#
DISCID=fa112f12
DTITLE=Various Artist - Zauber unvergeßlicher Schlager CD 5
DYEAR=1900
DGENRE=Oldies
TTITLE0=Marianne Rosenberg - Ich hab auf die Liebe gesetzt
TTITLE1=Howard Carpendale - Hello Again
TTITLE2=Milva - Zusammenleben
TTITLE3=Christian Anders - Du gehörst zu mir
TTITLE4=Andy Borg - Weil wir uns lieben
TTITLE5=Die Flippers - Aber dich gibt´s nur einmal für mich
TTITLE6=Christian Anders - Nie mehr allein
TTITLE7=Karel Gott - Das letzte Lied in dieser Nacht
TTITLE8=Howard Carpendale - Wie frei willst du sein
TTITLE9=Demis Roussos - Goodbye, My Love, Goodbye
TTITLE10=Andy Borg - Adios Amor
TTITLE11=Roland Kaiser - Lieb mich ein letztes Mal
TTITLE12=Andreas Martin - Du kommst nicht zurück
TTITLE13=Roy Black - Der Abschiedsbrief
TTITLE14=Bernhard Brink - Liebe auf Zeit
TTITLE15=Katja Ebstein - Abschied ist ein bißchen wie sterben
TTITLE16=Michael Holm - Wart auf mich
TTITLE17=Roger Whittaker - Abschied ist ein scharfes Schwert
EXTD=
EXTT0=
EXTT1=
EXTT2=
EXTT3=
EXTT4=
EXTT5=
EXTT6=
EXTT7=
EXTT8=
EXTT9=
EXTT10=
EXTT11=
EXTT12=
EXTT13=
EXTT14=
EXTT15=
EXTT16=
EXTT17=
PLAYORDER=
